<?xml version="1.0" encoding="UTF-8"?>
<svg width="716px" height="199px" viewBox="0 0 716 199" version="1.1" xmlns="http://www.w3.org/2000/svg" xmlns:xlink="http://www.w3.org/1999/xlink">
    <!-- Generator: Sketch 54.1 (76490) - https://sketchapp.com -->
    <title>logo-white</title>
    <desc>Created with Sketch.</desc>
    <defs>
        <polygon id="path-1" points="0 236.875 743.125 236.875 743.125 0 0 0"></polygon>
    </defs>
    <g id="Page-1" stroke="none" stroke-width="1" fill="none" fill-rule="evenodd">
        <g id="logo-white" transform="translate(-11.000000, -18.000000)">
            <g id="C1_OSLogo_CloudCustodian_RGB_BW_solo">
                <g id="g3363">
                    <g transform="translate(372.000000, 119.375000) scale(-1, 1) rotate(-180.000000) translate(-372.000000, -119.375000) translate(0.000000, 0.875000)">
                        <g id="g3365">
                            <g id="g3367-Clipped">
                                <mask id="mask-2" fill="white">
                                    <use xlink:href="#path-1"></use>
                                </mask>
                                <g id="path3371"></g>
                                <g id="g3367" mask="url(#mask-2)">
                                    <g transform="translate(10.000000, 20.000000)">
                                        <g id="g3373" transform="translate(190.462625, 101.964125)">
                                            <path d="M61.25,6.25 C54.16625,2.5825 46.37625,0.75 37.87625,0.75 C26.2075,0.75 17.16625,4.75 10.75125,12.74875 C4.3325,20.75 1.12625,31.95625 1.12625,46.375 C1.12625,60.70625 4.35375,71.89375 10.81375,79.9375 C17.27,87.9775 26.29125,92 37.87625,92 C45.9575,92 53.625,90.165 60.875,86.5 L60.875,76.625 C57.04125,78.54125 53.50125,79.89375 50.25,80.6875 C47.00125,81.47875 43.54125,81.875 39.875,81.875 C22.7075,81.875 14.12625,70.04 14.12625,46.375 C14.12625,22.70625 22.7075,10.87375 39.875,10.87375 C43.625,10.87375 47.1875,11.29 50.5625,12.12375 C53.9375,12.95625 57.5,14.29125 61.25,16.12375 L61.25,6.25 Z" id="path3375" fill="#FFFFFF"></path>
                                        </g>
                                        <g id="g3377" transform="translate(263.586375, 104.588625)">
                                            <polygon id="path3379" fill="#FFFFFF" points="0 0 0 93.875 11.75 95.25 11.75 0"></polygon>
                                        </g>
                                        <g id="g3381" transform="translate(286.835000, 101.964125)">
                                            <path d="M29,10 C34.83125,10 39.0625,11.915 41.68625,15.75 C44.31125,19.58125 45.625,25.79125 45.625,34.375 C45.625,42.95625 44.31125,49.16625 41.68625,52.99875 C39.0625,56.83125 34.83125,58.75 29,58.75 C23.165,58.75 18.93625,56.83125 16.3125,52.99875 C13.6875,49.16625 12.37375,42.95625 12.37375,34.375 C12.37375,25.79125 13.6875,19.58125 16.3125,15.75 C18.93625,11.915 23.165,10 29,10 M29,0.75 C19.49875,0.75 12.31125,3.60375 7.4375,9.31125 C2.5625,15.02 0.12375,23.37375 0.12375,34.375 C0.12375,45.375 2.5625,53.7275 7.4375,59.4375 C12.31125,65.14375 19.49875,67.99875 29,67.99875 C38.5,67.99875 45.6875,65.14375 50.56125,59.4375 C55.43625,53.7275 57.875,45.375 57.875,34.375 C57.875,23.37375 55.43625,15.02 50.56125,9.31125 C45.6875,3.60375 38.5,0.75 29,0.75" id="path3383" fill="#FFFFFF" fill-rule="nonzero"></path>
                                        </g>
                                        <g id="g3385" transform="translate(355.582250, 101.838375)">
                                            <path d="M42.5,2.5 L41.74875,6.875 C34.91625,2.875 28.125,0.875 21.375,0.875 C14.625,0.875 9.375,2.70875 5.625,6.37625 C1.875,10.04125 0,15.16625 0,21.75 L0,66.25 L11.74875,66.25 L11.74875,23.5 C11.74875,14.5825 16.04125,10.12625 24.625,10.12625 C27.04125,10.12625 29.665,10.52 32.5,11.3125 C35.3325,12.10375 37.915,13.16625 40.24875,14.50125 L40.24875,66.25 L52,66.25 L52,3.5 L42.5,2.5 Z" id="path3387" fill="#FFFFFF"></path>
                                        </g>
                                        <g id="g3389" transform="translate(418.081000, 101.964125)">
                                            <path d="M30,10 C32.25,10 34.7275,10.39375 37.43625,11.18625 C40.14375,11.9775 42.625,13.04125 44.87375,14.375 L44.87375,57.37375 C41.375,58.375 37.665,58.875 33.74875,58.875 C26.915,58.875 21.81125,56.79125 18.4375,52.625 C15.0625,48.45625 13.37375,42.125 13.37375,33.62375 C13.37375,25.87375 14.76875,20 17.5625,16 C20.3525,12 24.5,10 30,10 L30,10 Z M56.625,97.875 L56.625,3.37375 L47.12375,2.37375 L46.375,6.74875 C39.79,2.74875 33.415,0.75 27.25,0.75 C19.0825,0.75 12.68625,3.64375 8.06125,9.4375 C3.4375,15.22875 1.12375,23.20625 1.12375,33.37375 C1.12375,44.375 3.83125,52.89375 9.24875,58.93625 C14.665,64.9775 22.29,67.99875 32.12375,67.99875 C36.87375,67.99875 41.12375,67.41625 44.87375,66.25 L44.87375,96.5 L56.625,97.875 Z" id="path3391" fill="#FFFFFF" fill-rule="nonzero"></path>
                                        </g>
                                        <g id="g3393" transform="translate(190.462625, 0.714125)">
                                            <path d="M61.25,6.25 C54.16625,2.5825 46.37625,0.75 37.87625,0.75 C26.2075,0.75 17.16625,4.75 10.75125,12.74875 C4.3325,20.75 1.12625,31.95625 1.12625,46.375 C1.12625,60.70625 4.35375,71.895 10.81375,79.93625 C17.27,87.97875 26.29125,92 37.87625,92 C45.9575,92 53.625,90.16625 60.875,86.49875 L60.875,76.625 C57.04125,78.54 53.50125,79.89375 50.25,80.6875 C47.00125,81.47875 43.54125,81.875 39.875,81.875 C22.7075,81.875 14.12625,70.04 14.12625,46.375 C14.12625,22.70625 22.7075,10.87375 39.875,10.87375 C43.625,10.87375 47.1875,11.29 50.5625,12.12375 C53.9375,12.95625 57.5,14.29125 61.25,16.12375 L61.25,6.25 Z" id="path3395" fill="#FFFFFF"></path>
                                        </g>
                                        <g id="g3397" transform="translate(262.836875, 0.588375)">
                                            <path d="M42.5,2.5 L41.74875,6.875 C34.91625,2.875 28.125,0.875 21.375,0.875 C14.625,0.875 9.375,2.70875 5.625,6.37625 C1.875,10.04125 0,15.16625 0,21.75 L0,66.25 L11.74875,66.25 L11.74875,23.5 C11.74875,14.5825 16.04125,10.12625 24.625,10.12625 C27.04125,10.12625 29.665,10.52 32.5,11.3125 C35.3325,12.10375 37.915,13.16625 40.24875,14.50125 L40.24875,66.25 L52,66.25 L52,3.5 L42.5,2.5 Z" id="path3399" fill="#FFFFFF"></path>
                                        </g>
                                        <g id="g3401" transform="translate(325.835000, 1.213375)">
                                            <path d="M0,13.75 C6.66625,10.8325 13.3325,9.375 20,9.375 C24.8325,9.375 28.51875,10.29125 31.06375,12.125 C33.60375,13.9575 34.875,16.5825 34.875,20 C34.875,22.25 34.16625,24.0825 32.75,25.5 C31.33125,26.91625 29,28.125 25.75125,29.125 L17.25,31.75 C11.5825,33.5 7.4575,35.75125 4.875,38.5 C2.29125,41.25 1.00125,44.75 1.00125,49 C1.00125,54.66625 3.2075,59.16625 7.62625,62.5 C12.04125,65.8325 18,67.5 25.5,67.5 C31.8325,67.5 37.875,66.25 43.625,63.75 L43.625,54.75 C37.29125,57.16625 31.5,58.375 26.25,58.375 C22.00125,58.375 18.6875,57.5625 16.3125,55.9375 C13.9375,54.3125 12.75,52.125 12.75,49.375 C12.75,47.375 13.375,45.8125 14.625,44.6875 C15.875,43.56375 18.20625,42.4575 21.625,41.37625 L31.125,38.5 C41.4575,35.41625 46.625,29.29125 46.625,20.12625 C46.625,13.7075 44.41625,8.79125 40,5.375 C35.5825,1.95875 29.2075,0.25 20.875,0.25 C13.125,0.25 6.62625,1.5425 1.37625,4.125 L0,13.75 Z" id="path3403" fill="#FFFFFF"></path>
                                        </g>
                                        <g id="g3405" transform="translate(376.583250, 0.838625)">
                                            <path d="M21.25,57.5 L21.25,21 C21.25,17.25 22.0825,14.47875 23.75,12.6875 C25.41625,10.895 27.9575,10 31.37625,10 C33.9575,10 36.70625,10.45625 39.625,11.375 L39.625,3 C36.125,1.6675 32.5,1 28.75,1 C22.41625,1 17.62625,2.66625 14.375,6 C11.125,9.3325 9.50125,14.20625 9.50125,20.625 L9.50125,57.5 L0,57.5 L0,65.5 L10,65.875 L10.875,81.75 L21.25,82.875 L21.25,66 L39,66 L39,57.5 L21.25,57.5 Z" id="path3407" fill="#FFFFFF"></path>
                                        </g>
                                        <g id="g3409" transform="translate(420.208750, 0.714125)">
                                            <path d="M30,10 C35.83125,10 40.0625,11.915 42.68625,15.75 C45.31125,19.58125 46.625,25.79125 46.625,34.375 C46.625,42.95625 45.31125,49.165 42.68625,52.99875 C40.0625,56.83125 35.83125,58.75 30,58.75 C24.165,58.75 19.93625,56.83125 17.3125,52.99875 C14.6875,49.165 13.37375,42.95625 13.37375,34.375 C13.37375,25.79125 14.6875,19.58125 17.3125,15.75 C19.93625,11.915 24.165,10 30,10 M30,0.75 C20.49875,0.75 13.31125,3.60375 8.4375,9.31125 C3.5625,15.02 1.12375,23.37375 1.12375,34.375 C1.12375,45.375 3.5625,53.7275 8.4375,59.4375 C13.31125,65.14375 20.49875,67.99875 30,67.99875 C39.5,67.99875 46.6875,65.14375 51.56125,59.4375 C56.43625,53.7275 58.875,45.375 58.875,34.375 C58.875,23.37375 56.43625,15.02 51.56125,9.31125 C46.6875,3.60375 39.5,0.75 30,0.75" id="path3411" fill="#FFFFFF" fill-rule="nonzero"></path>
                                        </g>
                                        <g id="g3413" transform="translate(485.831250, 0.714125)">
                                            <path d="M30,10 C32.25,10 34.7275,10.39375 37.43625,11.18625 C40.14375,11.9775 42.625,13.04125 44.87375,14.375 L44.87375,57.37375 C41.375,58.37375 37.665,58.875 33.74875,58.875 C26.915,58.875 21.81125,56.79125 18.4375,52.625 C15.0625,48.4575 13.37375,42.12375 13.37375,33.62375 C13.37375,25.87375 14.76875,20 17.5625,16 C20.3525,12 24.5,10 30,10 L30,10 Z M56.625,97.875 L56.625,3.37375 L47.12375,2.37375 L46.375,6.74875 C39.79,2.74875 33.415,0.75 27.25,0.75 C19.0825,0.75 12.68625,3.64375 8.06125,9.4375 C3.4375,15.22875 1.12375,23.20625 1.12375,33.37375 C1.12375,44.375 3.83125,52.89375 9.24875,58.93625 C14.665,64.9775 22.29,67.99875 32.12375,67.99875 C36.87375,67.99875 41.12375,67.41625 44.87375,66.25 L44.87375,96.49875 L56.625,97.875 Z" id="path3415" fill="#FFFFFF" fill-rule="nonzero"></path>
                                        </g>
                                        <g id="g3417" transform="translate(555.328375, 3.338625)">
                                            <path d="M2.5,0 L2.5,62.5 L14.25,63.875 L14.25,0 L2.5,0 Z M8.375,76.5 C5.9575,76.5 4.0625,77.145 2.6875,78.4375 C1.31375,79.72875 0.625,81.5 0.625,83.75 C0.625,86 1.31375,87.77 2.6875,89.0625 C4.0625,90.35375 5.9575,91 8.375,91 C10.79125,91 12.6875,90.35375 14.0625,89.0625 C15.43875,87.77 16.125,86 16.125,83.75 C16.125,81.5 15.43875,79.72875 14.0625,78.4375 C12.6875,77.145 10.79125,76.5 8.375,76.5 L8.375,76.5 Z" id="path3419" fill="#FFFFFF" fill-rule="nonzero"></path>
                                        </g>
                                        <g id="g3421" transform="translate(580.952125, 0.588375)">
                                            <path d="M25,10 C27.4175,10 30.12625,10.41625 33.125,11.25 C36.125,12.0825 38.79125,13.16625 41.125,14.50125 L41.125,30.5 C37.2075,31.5 32.58125,32.00125 27.25125,32.00125 C22.25125,32.00125 18.56375,31.06375 16.1875,29.18875 C13.81375,27.31375 12.62625,24.50125 12.62625,20.75125 C12.62625,13.5825 16.75,10 25,10 L25,10 Z M43.125,2.5 L42.375,6.875 C35.375,2.875 28.5825,0.875 22.00125,0.875 C15.41625,0.875 10.1875,2.64625 6.31375,6.1875 C2.4375,9.72875 0.5,14.50125 0.5,20.5 C0.5,26.75 2.6675,31.60375 7.00125,35.0625 C11.3325,38.51875 17.4175,40.25 25.25,40.25 C29.8325,40.25 35.12625,39.7075 41.125,38.625 L41.125,45.25 C41.125,49.8325 39.81375,53.25125 37.1875,55.5 C34.5625,57.75 30.5425,58.87625 25.12625,58.87625 C18.79125,58.87625 11.875,57.41625 4.37625,54.50125 L4.37625,63.625 C7.87625,65.04125 11.66625,66.145 15.75125,66.9375 C19.8325,67.72875 23.7075,68.125 27.375,68.125 C35.625,68.125 41.895,66.2075 46.1875,62.375 C50.47875,58.54125 52.62625,52.91625 52.62625,45.5 L52.62625,3.5 L43.125,2.5 Z" id="path3423" fill="#FFFFFF" fill-rule="nonzero"></path>
                                        </g>
                                        <g id="g3425" transform="translate(647.574500, 3.338625)">
                                            <path d="M41.25,0 L41.25,42.75 C41.25,51.66625 36.8325,56.125 28,56.125 C25.66625,56.125 23.0625,55.72875 20.1875,54.9375 C17.31375,54.14375 14.7075,53.0825 12.375,51.75 L12.375,8.8817842e-15 L0.625,0 L0.625,62.75 L10.12625,63.75 L10.875,59.375 C17.7075,63.375 24.50125,65.375 31.25,65.375 C38.16625,65.375 43.51875,63.5625 47.3125,59.9375 C51.10375,56.3125 52.99875,51.16625 52.99875,44.5 L52.99875,0 L41.25,0 Z" id="path3427" fill="#FFFFFF"></path>
                                        </g>
                                        <g id="g3429" transform="translate(39.964625, 78.588375)">
                                            <polygon id="path3431" fill="#FFFFFF" points="16.25 26.25 1.21375 17.57 1.21375 0.20875 16.25 8.89"></polygon>
                                        </g>
                                        <g id="g3433" transform="translate(63.958375, 101.190000)">
                                            <polygon id="path3435" fill="#FFFFFF" points="16.25 17.5 1.21375 8.82 16.25 0.14 31.28625 8.81875"></polygon>
                                        </g>
                                        <g id="g3437" transform="translate(81.978000, 115.044250)">
                                            <polygon id="path3439" fill="#FFFFFF" points="16.25 17.5 1.21625 26.18 1.21625 8.8175 16.25 0.1375"></polygon>
                                        </g>
                                        <g id="g3441" transform="translate(62.186375, 78.727625)">
                                            <polygon id="path3443" fill="#FFFFFF" points="0 8.75 15.03625 0.07 15.03625 17.43 0 26.11125"></polygon>
                                        </g>
                                        <g id="g3445" transform="translate(39.964625, 102.544000)">
                                            <polygon id="path3447" fill="#FFFFFF" points="16.25 30 1.21375 38.68 1.21375 0.50875 16.25 9.19"></polygon>
                                        </g>
                                        <g id="g3449" transform="translate(60.972000, 114.974500)">
                                            <polygon id="path3451" fill="#FFFFFF" points="16.25 26.25 1.21375 17.57 1.21375 0.2075 16.25 8.8875"></polygon>
                                        </g>
                                        <g id="g3453" transform="translate(44.165000, 53.626000)">
                                            <polygon id="path3455" fill="#FFFFFF" points="0 20 33.0575 0.9125 33.0575 18.27625 15.03625 28.68"></polygon>
                                        </g>
                                        <g id="g3457" transform="translate(102.985500, 78.658125)">
                                            <polygon id="path3459" fill="#FFFFFF" points="16.25 17.5 1.21375 26.18125 1.21375 8.82 16.25 0.1375"></polygon>
                                        </g>
                                        <g id="g3461" transform="translate(83.193875, 78.794125)">
                                            <polygon id="path3463" fill="#FFFFFF" points="0 0 15.03375 8.68375 15.03375 26.0425 0 17.36375"></polygon>
                                        </g>
                                        <g id="g3465" transform="translate(0.207250, 24.400000)">
                                            <path d="M125,47.5 L80.00125,21.52 L35,47.50125 L35,127.16625 L58.99375,113.315 L80.00125,125.4425 L101.00625,113.315 L125,127.16625 L125,47.5 Z M79.7925,158.725 C36.3,158.725 1.0425,123.4675 1.0425,79.975 C1.0425,36.4825 36.3,1.225 79.7925,1.225 C123.285,1.225 158.5425,36.4825 158.5425,79.975 C158.5425,123.4675 123.285,158.725 79.7925,158.725 L79.7925,158.725 Z" id="path3467" fill="#FFFFFF" fill-rule="nonzero"></path>
                                        </g>
                                        <g id="g3469" transform="translate(102.985500, 102.474000)">
                                            <polygon id="path3471" fill="#FFFFFF" points="16.25 38.75 1.21375 30.07 1.21375 9.26 16.25 0.58"></polygon>
                                        </g>
                                        <g id="g3473" transform="translate(83.193875, 54.399750)">
                                            <polygon id="path3475" fill="#FFFFFF" points="0 17.5 0 0.13875 33.05625 19.225 18.02 27.90625"></polygon>
                                        </g>
                                    </g>
                                </g>
                            </g>
                        </g>
                    </g>
                </g>
            </g>
            <text id="SM" fill="#FFFFFF" font-family="Optimist-Regular, Optimist" font-size="8" font-weight="normal">
                <tspan x="716.356" y="215">SM</tspan>
            </text>
        </g>
    </g>
</svg>