<?xml version="1.0" encoding="UTF-8"?>
<svg width="715px" height="199px" viewBox="0 0 715 199" version="1.1" xmlns="http://www.w3.org/2000/svg" xmlns:xlink="http://www.w3.org/1999/xlink">
    <!-- Generator: Sketch 54.1 (76490) - https://sketchapp.com -->
    <title>logo-color</title>
    <desc>Created with Sketch.</desc>
    <defs>
        <polygon id="path-1" points="0 236.25 743.125 236.25 743.125 0 0 0"></polygon>
        <path d="M0,78.75 C0,35.2575 35.2575,0 78.75,0 L78.75,0 C122.2425,0 157.5,35.2575 157.5,78.75 L157.5,78.75 C157.5,122.2425 122.2425,157.5 78.75,157.5 L78.75,157.5 C35.2575,157.5 0,122.2425 0,78.75" id="path-3"></path>
        <linearGradient x1="50%" y1="-67.0967135%" x2="50%" y2="63.9870405%" id="linearGradient-5">
            <stop stop-color="#F79422" offset="0%"></stop>
            <stop stop-color="#F4C91D" offset="98.3516%"></stop>
            <stop stop-color="#F4C91D" offset="100%"></stop>
        </linearGradient>
        <polygon id="path-6" points="0 236.25 743.125 236.25 743.125 0 0 0"></polygon>
    </defs>
    <g id="Page-1" stroke="none" stroke-width="1" fill="none" fill-rule="evenodd">
        <g id="logo-color" transform="translate(-11.000000, -17.000000)">
            <g id="C1_OSLogo_CloudCustodian_RGB_FullColor_solo">
                <g id="g3363" transform="translate(371.875000, 118.125000) scale(-1, 1) rotate(-180.000000) translate(-371.875000, -118.125000) ">
                    <g id="g3365" transform="translate(47.294625, 68.139000)" fill="#FFFFFF" fill-rule="nonzero">
                        <path d="M63.75,37.5 L42.60875,25.8275 L21.32625,37.88625 L21.32625,61.86125 L42.60875,73.97625 L63.75,63.01125 L63.75,37.5 Z M63.90125,86.13625 L42.80125,98.31375 L21.50875,86.13625 L0.36125,98.33625 L0.36125,25.205 L42.9575,1.15875 L85.0425,25.3175 L85.55375,98.38 L63.90125,86.13625 L63.90125,86.13625 Z" id="path3367"></path>
                    </g>
                    <g id="g3369">
                        <g id="g3371-Clipped">
                            <mask id="mask-2" fill="white">
                                <use xlink:href="#path-1"></use>
                            </mask>
                            <g id="path3375"></g>
                            <g id="g3371" mask="url(#mask-2)">
                                <g transform="translate(200.000000, 18.750000)">
                                    <g id="g3377" transform="translate(0.462625, 102.589125)">
                                        <path d="M61.25,6.25 C54.16625,2.5825 46.37625,0.75 37.87625,0.75 C26.2075,0.75 17.16625,4.75 10.75125,12.74875 C4.3325,20.75 1.12625,31.95625 1.12625,46.375 C1.12625,60.70625 4.35375,71.89375 10.81375,79.9375 C17.27,87.9775 26.29125,92 37.87625,92 C45.9575,92 53.625,90.165 60.875,86.5 L60.875,76.625 C57.04125,78.54125 53.50125,79.89375 50.25,80.6875 C47.00125,81.47875 43.54125,81.875 39.875,81.875 C22.7075,81.875 14.12625,70.04 14.12625,46.375 C14.12625,22.70625 22.7075,10.87375 39.875,10.87375 C43.625,10.87375 47.1875,11.29 50.5625,12.12375 C53.9375,12.95625 57.5,14.29125 61.25,16.12375 L61.25,6.25 Z" id="path3379" fill="#064A78" fill-rule="nonzero"></path>
                                    </g>
                                    <g id="g3381" transform="translate(73.586375, 105.213625)">
                                        <polygon id="path3383" fill="#064A78" fill-rule="nonzero" points="0 0 0 93.875 11.75 95.25 11.75 0"></polygon>
                                    </g>
                                    <g id="g3385" transform="translate(95.835000, 102.589125)">
                                        <path d="M30,10 C35.83125,10 40.0625,11.915 42.68625,15.75 C45.31125,19.58125 46.625,25.79125 46.625,34.375 C46.625,42.95625 45.31125,49.16625 42.68625,52.99875 C40.0625,56.83125 35.83125,58.75 30,58.75 C24.165,58.75 19.93625,56.83125 17.3125,52.99875 C14.6875,49.16625 13.37375,42.95625 13.37375,34.375 C13.37375,25.79125 14.6875,19.58125 17.3125,15.75 C19.93625,11.915 24.165,10 30,10 M30,0.75 C20.49875,0.75 13.31125,3.60375 8.4375,9.31125 C3.5625,15.02 1.12375,23.37375 1.12375,34.375 C1.12375,45.375 3.5625,53.7275 8.4375,59.4375 C13.31125,65.14375 20.49875,67.99875 30,67.99875 C39.5,67.99875 46.6875,65.14375 51.56125,59.4375 C56.43625,53.7275 58.875,45.375 58.875,34.375 C58.875,23.37375 56.43625,15.02 51.56125,9.31125 C46.6875,3.60375 39.5,0.75 30,0.75" id="path3387" fill="#064A78" fill-rule="nonzero"></path>
                                    </g>
                                    <g id="g3389" transform="translate(165.582250, 102.463375)">
                                        <path d="M42.5,2.5 L41.74875,6.875 C34.91625,2.875 28.125,0.875 21.375,0.875 C14.625,0.875 9.375,2.70875 5.625,6.37625 C1.875,10.04125 0,15.16625 0,21.75 L0,66.25 L11.74875,66.25 L11.74875,23.5 C11.74875,14.5825 16.04125,10.12625 24.625,10.12625 C27.04125,10.12625 29.665,10.52 32.5,11.3125 C35.3325,12.10375 37.915,13.16625 40.24875,14.50125 L40.24875,66.25 L52,66.25 L52,3.5 L42.5,2.5 Z" id="path3391" fill="#064A78" fill-rule="nonzero"></path>
                                    </g>
                                    <g id="g3393" transform="translate(228.081000, 102.589125)">
                                        <path d="M30,10 C32.25,10 34.7275,10.39375 37.43625,11.18625 C40.14375,11.9775 42.625,13.04125 44.87375,14.375 L44.87375,57.37375 C41.375,58.375 37.665,58.875 33.74875,58.875 C26.915,58.875 21.81125,56.79125 18.4375,52.625 C15.0625,48.45625 13.37375,42.125 13.37375,33.62375 C13.37375,25.87375 14.76875,20 17.5625,16 C20.3525,12 24.5,10 30,10 L30,10 Z M56.625,97.875 L56.625,3.37375 L47.12375,2.37375 L46.375,6.74875 C39.79,2.74875 33.415,0.75 27.25,0.75 C19.0825,0.75 12.68625,3.64375 8.06125,9.4375 C3.4375,15.22875 1.12375,23.20625 1.12375,33.37375 C1.12375,44.375 3.83125,52.89375 9.24875,58.93625 C14.665,64.9775 22.29,67.99875 32.12375,67.99875 C36.87375,67.99875 41.12375,67.41625 44.87375,66.25 L44.87375,96.5 L56.625,97.875 Z" id="path3395" fill="#064A78" fill-rule="nonzero"></path>
                                    </g>
                                    <g id="g3397" transform="translate(0.462625, 1.339125)">
                                        <path d="M61.25,6.25 C54.16625,2.5825 46.37625,0.75 37.87625,0.75 C26.2075,0.75 17.16625,4.75 10.75125,12.74875 C4.3325,20.75 1.12625,31.95625 1.12625,46.375 C1.12625,60.70625 4.35375,71.895 10.81375,79.93625 C17.27,87.97875 26.29125,92 37.87625,92 C45.9575,92 53.625,90.16625 60.875,86.49875 L60.875,76.625 C57.04125,78.54 53.50125,79.89375 50.25,80.6875 C47.00125,81.47875 43.54125,81.875 39.875,81.875 C22.7075,81.875 14.12625,70.04 14.12625,46.375 C14.12625,22.70625 22.7075,10.87375 39.875,10.87375 C43.625,10.87375 47.1875,11.29 50.5625,12.12375 C53.9375,12.95625 57.5,14.29125 61.25,16.12375 L61.25,6.25 Z" id="path3399" fill="#064A78" fill-rule="nonzero"></path>
                                    </g>
                                    <g id="g3401" transform="translate(72.836875, 1.213375)">
                                        <path d="M42.5,2.5 L41.74875,6.875 C34.91625,2.875 28.125,0.875 21.375,0.875 C14.625,0.875 9.375,2.70875 5.625,6.37625 C1.875,10.04125 0,15.16625 0,21.75 L0,66.25 L11.74875,66.25 L11.74875,23.5 C11.74875,14.5825 16.04125,10.12625 24.625,10.12625 C27.04125,10.12625 29.665,10.52 32.5,11.3125 C35.3325,12.10375 37.915,13.16625 40.24875,14.50125 L40.24875,66.25 L52,66.25 L52,3.5 L42.5,2.5 Z" id="path3403" fill="#064A78" fill-rule="nonzero"></path>
                                    </g>
                                    <g id="g3405" transform="translate(135.835000, 1.838375)">
                                        <path d="M0,13.75 C6.66625,10.8325 13.3325,9.375 20,9.375 C24.8325,9.375 28.51875,10.29125 31.06375,12.125 C33.60375,13.9575 34.875,16.5825 34.875,20 C34.875,22.25 34.16625,24.0825 32.75,25.5 C31.33125,26.91625 29,28.125 25.75125,29.125 L17.25,31.75 C11.5825,33.5 7.4575,35.75125 4.875,38.5 C2.29125,41.25 1.00125,44.75 1.00125,49 C1.00125,54.66625 3.2075,59.16625 7.62625,62.5 C12.04125,65.8325 18,67.5 25.5,67.5 C31.8325,67.5 37.875,66.25 43.625,63.75 L43.625,54.75 C37.29125,57.16625 31.5,58.375 26.25,58.375 C22.00125,58.375 18.6875,57.5625 16.3125,55.9375 C13.9375,54.3125 12.75,52.125 12.75,49.375 C12.75,47.375 13.375,45.8125 14.625,44.6875 C15.875,43.56375 18.20625,42.4575 21.625,41.37625 L31.125,38.5 C41.4575,35.41625 46.625,29.29125 46.625,20.12625 C46.625,13.7075 44.41625,8.79125 40,5.375 C35.5825,1.95875 29.2075,0.25 20.875,0.25 C13.125,0.25 6.62625,1.5425 1.37625,4.125 L0,13.75 Z" id="path3407" fill="#064A78" fill-rule="nonzero"></path>
                                    </g>
                                    <g id="g3409" transform="translate(186.583250, 1.463625)">
                                        <path d="M21.25,57.5 L21.25,21 C21.25,17.25 22.0825,14.47875 23.75,12.6875 C25.41625,10.895 27.9575,10 31.37625,10 C33.9575,10 36.70625,10.45625 39.625,11.375 L39.625,3 C36.125,1.6675 32.5,1 28.75,1 C22.41625,1 17.62625,2.66625 14.375,6 C11.125,9.3325 9.50125,14.20625 9.50125,20.625 L9.50125,57.5 L0,57.5 L0,65.5 L10,65.875 L10.875,81.75 L21.25,82.875 L21.25,66 L39,66 L39,57.5 L21.25,57.5 Z" id="path3411" fill="#064A78" fill-rule="nonzero"></path>
                                    </g>
                                    <g id="g3413" transform="translate(230.208750, 1.339125)">
                                        <path d="M30,10 C35.83125,10 40.0625,11.915 42.68625,15.75 C45.31125,19.58125 46.625,25.79125 46.625,34.375 C46.625,42.95625 45.31125,49.165 42.68625,52.99875 C40.0625,56.83125 35.83125,58.75 30,58.75 C24.165,58.75 19.93625,56.83125 17.3125,52.99875 C14.6875,49.165 13.37375,42.95625 13.37375,34.375 C13.37375,25.79125 14.6875,19.58125 17.3125,15.75 C19.93625,11.915 24.165,10 30,10 M30,0.75 C20.49875,0.75 13.31125,3.60375 8.4375,9.31125 C3.5625,15.02 1.12375,23.37375 1.12375,34.375 C1.12375,45.375 3.5625,53.7275 8.4375,59.4375 C13.31125,65.14375 20.49875,67.99875 30,67.99875 C39.5,67.99875 46.6875,65.14375 51.56125,59.4375 C56.43625,53.7275 58.875,45.375 58.875,34.375 C58.875,23.37375 56.43625,15.02 51.56125,9.31125 C46.6875,3.60375 39.5,0.75 30,0.75" id="path3415" fill="#064A78" fill-rule="nonzero"></path>
                                    </g>
                                    <g id="g3417" transform="translate(295.831250, 1.339125)">
                                        <path d="M30,10 C32.25,10 34.7275,10.39375 37.43625,11.18625 C40.14375,11.9775 42.625,13.04125 44.87375,14.375 L44.87375,57.37375 C41.375,58.37375 37.665,58.875 33.74875,58.875 C26.915,58.875 21.81125,56.79125 18.4375,52.625 C15.0625,48.4575 13.37375,42.12375 13.37375,33.62375 C13.37375,25.87375 14.76875,20 17.5625,16 C20.3525,12 24.5,10 30,10 L30,10 Z M56.625,97.875 L56.625,3.37375 L47.12375,2.37375 L46.375,6.74875 C39.79,2.74875 33.415,0.75 27.25,0.75 C19.0825,0.75 12.68625,3.64375 8.06125,9.4375 C3.4375,15.22875 1.12375,23.20625 1.12375,33.37375 C1.12375,44.375 3.83125,52.89375 9.24875,58.93625 C14.665,64.9775 22.29,67.99875 32.12375,67.99875 C36.87375,67.99875 41.12375,67.41625 44.87375,66.25 L44.87375,96.49875 L56.625,97.875 Z" id="path3419" fill="#064A78" fill-rule="nonzero"></path>
                                    </g>
                                    <g id="g3421" transform="translate(365.328375, 3.963625)">
                                        <path d="M2.5,0 L2.5,62.5 L14.25,63.875 L14.25,0 L2.5,0 Z M8.375,76.5 C5.9575,76.5 4.0625,77.145 2.6875,78.4375 C1.31375,79.72875 0.625,81.5 0.625,83.75 C0.625,86 1.31375,87.77 2.6875,89.0625 C4.0625,90.35375 5.9575,91 8.375,91 C10.79125,91 12.6875,90.35375 14.0625,89.0625 C15.43875,87.77 16.125,86 16.125,83.75 C16.125,81.5 15.43875,79.72875 14.0625,78.4375 C12.6875,77.145 10.79125,76.5 8.375,76.5 L8.375,76.5 Z" id="path3423" fill="#064A78" fill-rule="nonzero"></path>
                                    </g>
                                    <g id="g3425" transform="translate(390.952125, 1.213375)">
                                        <path d="M25,10 C27.4175,10 30.12625,10.41625 33.125,11.25 C36.125,12.0825 38.79125,13.16625 41.125,14.50125 L41.125,30.5 C37.2075,31.5 32.58125,32.00125 27.25125,32.00125 C22.25125,32.00125 18.56375,31.06375 16.1875,29.18875 C13.81375,27.31375 12.62625,24.50125 12.62625,20.75125 C12.62625,13.5825 16.75,10 25,10 L25,10 Z M43.125,2.5 L42.375,6.875 C35.375,2.875 28.5825,0.875 22.00125,0.875 C15.41625,0.875 10.1875,2.64625 6.31375,6.1875 C2.4375,9.72875 0.5,14.50125 0.5,20.5 C0.5,26.75 2.6675,31.60375 7.00125,35.0625 C11.3325,38.51875 17.4175,40.25 25.25,40.25 C29.8325,40.25 35.12625,39.7075 41.125,38.625 L41.125,45.25 C41.125,49.8325 39.81375,53.25125 37.1875,55.5 C34.5625,57.75 30.5425,58.87625 25.12625,58.87625 C18.79125,58.87625 11.875,57.41625 4.37625,54.50125 L4.37625,63.625 C7.87625,65.04125 11.66625,66.145 15.75125,66.9375 C19.8325,67.72875 23.7075,68.125 27.375,68.125 C35.625,68.125 41.895,66.2075 46.1875,62.375 C50.47875,58.54125 52.62625,52.91625 52.62625,45.5 L52.62625,3.5 L43.125,2.5 Z" id="path3427" fill="#064A78" fill-rule="nonzero"></path>
                                    </g>
                                    <g id="g3429" transform="translate(457.574500, 3.963625)">
                                        <path d="M41.25,0 L41.25,42.75 C41.25,51.66625 36.8325,56.125 28,56.125 C25.66625,56.125 23.0625,55.72875 20.1875,54.9375 C17.31375,54.14375 14.7075,53.0825 12.375,51.75 L12.375,8.8817842e-15 L0.625,0 L0.625,62.75 L10.12625,63.75 L10.875,59.375 C17.7075,63.375 24.50125,65.375 31.25,65.375 C38.16625,65.375 43.51875,63.5625 47.3125,59.9375 C51.10375,56.3125 52.99875,51.16625 52.99875,44.5 L52.99875,0 L41.25,0 Z" id="path3431" fill="#064A78" fill-rule="nonzero"></path>
                                    </g>
                                </g>
                            </g>
                        </g>
                    </g>
                    <g id="g3433" transform="translate(11.250000, 45.000000)">
                        <g id="g3435-Clipped">
                            <mask id="mask-4" fill="white">
                                <use xlink:href="#path-3"></use>
                            </mask>
                            <g id="path3439"></g>
                            <g id="g3435" mask="url(#mask-4)" fill="url(#linearGradient-5)" fill-rule="nonzero">
                                <g id="g3441">
                                    <g id="g3443">
                                        <path d="M0,78.75 C0,35.2575 35.2575,0 78.75,0 L78.75,0 C122.2425,0 157.5,35.2575 157.5,78.75 L157.5,78.75 C157.5,122.2425 122.2425,157.5 78.75,157.5 L78.75,157.5 C35.2575,157.5 0,122.2425 0,78.75" id="path3453"></path>
                                    </g>
                                </g>
                            </g>
                        </g>
                    </g>
                    <g id="g3455">
                        <g id="g3457-Clipped">
                            <mask id="mask-7" fill="white">
                                <use xlink:href="#path-6"></use>
                            </mask>
                            <g id="path3461"></g>
                            <g id="g3457" mask="url(#mask-7)">
                                <g transform="translate(43.750000, 63.750000)">
                                    <g id="g3463" transform="translate(49.443875, 70.599375)">
                                        <polygon id="path3465" fill="#FFFFFF" fill-rule="nonzero" points="0 26.25 15.03375 17.57 15.03375 0.2075 0 8.8875"></polygon>
                                    </g>
                                    <g id="g3467" transform="translate(28.436375, 70.669125)">
                                        <polygon id="path3469" fill="#FFFFFF" fill-rule="nonzero" points="0 17.5 15.03625 26.18 15.03625 8.8175 0 0.1375"></polygon>
                                    </g>
                                    <g id="g3471" transform="translate(7.429000, 58.099000)">
                                        <polygon id="path3473" fill="#FFFFFF" fill-rule="nonzero" points="0 38.75 15.03625 30.07 15.03625 9.26 0 0.58"></polygon>
                                    </g>
                                    <g id="g3475" transform="translate(7.429000, 34.283125)">
                                        <polygon id="path3477" fill="#FFFFFF" fill-rule="nonzero" points="0 17.5 15.03625 26.18 15.03625 8.82 0 0.14"></polygon>
                                    </g>
                                    <g id="g3479" transform="translate(9.722000, 10.163000)">
                                        <polygon id="path3481" fill="#FFFFFF" fill-rule="nonzero" points="33.75 0 0.6925 19.0875 15.72875 27.7675 33.75 17.365"></polygon>
                                    </g>
                                    <g id="g3483" transform="translate(49.443875, 10.163000)">
                                        <polygon id="path3485" fill="#FFFFFF" fill-rule="nonzero" points="0 0 0 17.36125 18.02 27.7675 33.05625 19.08625"></polygon>
                                    </g>
                                    <g id="g3487" transform="translate(69.235500, 34.421125)">
                                        <polygon id="path3489" fill="#FFFFFF" fill-rule="nonzero" points="16.25 0 1.21375 8.6825 1.21375 26.0425 16.25 17.3625"></polygon>
                                    </g>
                                    <g id="g3491" transform="translate(69.235500, 58.678375)">
                                        <polygon id="path3493" fill="#FFFFFF" fill-rule="nonzero" points="16.25 0 1.21375 8.68125 1.21375 29.49125 16.25 38.17"></polygon>
                                    </g>
                                    <g id="g3495" transform="translate(0.485500, 1.178375)">
                                        <path d="M85,57.5 L69.96375,66.18125 L69.96375,86.99125 L85,95.67 L85,57.5 Z M85,33.2425 L69.96375,41.925 L69.96375,59.285 L85,50.605 L85,33.2425 Z M48.95875,8.985 L48.95875,26.34625 L66.9775,36.7525 L82.01375,28.07125 L48.95875,8.985 Z M63.9925,59.28375 L63.9925,41.92375 L48.95875,33.24125 L48.95875,50.605 L63.9925,59.28375 Z M30.9375,64.45625 L45.9725,73.13625 L61.00875,64.45625 L45.9725,55.77625 L30.9375,64.45625 Z M42.98625,33.24375 L27.95125,41.92375 L27.95125,59.285 L42.98625,50.60375 L42.98625,33.24375 Z M42.98625,8.985 L9.93,28.0725 L24.965,36.7525 L42.98625,26.35 L42.98625,8.985 Z M6.94375,50.605 L21.97875,59.285 L21.97875,41.925 L6.94375,33.24375 L6.94375,50.605 Z M6.94375,95.67 L21.97875,86.99125 L21.97875,66.18 L6.94375,57.5 L6.94375,95.67 L6.94375,95.67 Z M27.95125,86.99125 L42.98625,95.67125 L42.98625,78.30875 L27.95125,69.62875 L27.95125,86.99125 Z M48.95875,95.67125 L63.9925,86.99125 L63.9925,69.62875 L48.95875,78.30875 L48.95875,95.67125 Z M66.97875,92.16125 L45.9725,104.28875 L24.965,92.16125 L0.97125,106.01375 L0.97125,26.34875 L45.9725,0.36625 L90.97125,26.34625 L90.97125,106.01375 L66.97875,92.16125 Z" id="path3497" fill="#87752E" fill-rule="nonzero"></path>
                                    </g>
                                </g>
                            </g>
                        </g>
                    </g>
                </g>
            </g>
            <text id="SM" fill="#064A78" font-family="Optimist-Regular, Optimist" font-size="8" font-weight="normal">
                <tspan x="715.356" y="213">SM</tspan>
            </text>
        </g>
    </g>
</svg>